<?xml version="1.0" standalone="no"?>
<!DOCTYPE svg>
<svg version="1.0" xmlns="http://www.w3.org/2000/svg"
 width="482.000000pt" height="481.000000pt" viewBox="0 0 482.000000 481.000000"
 preserveAspectRatio="xMidYMid meet">

<g transform="translate(0.000000,481.000000) scale(0.100000,-0.100000)"
fill="#000000" stroke="none">
<path d="M3071 4761 c-22 -6 -19 -11 60 -80 46 -41 115 -94 154 -119 38 -25
95 -68 126 -96 30 -28 91 -81 135 -118 220 -187 252 -221 289 -308 17 -40 47
-90 186 -302 20 -31 42 -81 49 -110 7 -29 17 -61 22 -70 5 -10 17 -52 28 -94
22 -91 17 -110 -44 -151 -37 -24 -53 -28 -166 -35 -69 -4 -186 -7 -260 -6
l-135 1 -125 -52 c-111 -46 -139 -64 -245 -149 -166 -134 -163 -127 -232 -527
-17 -101 -28 -115 -87 -115 -59 0 -149 -24 -241 -63 l-80 -34 -110 102 c-60
56 -126 112 -145 125 -19 13 -61 46 -93 74 -33 27 -81 63 -107 80 -27 17 -75
48 -106 70 -32 21 -76 45 -97 52 -67 24 -237 48 -337 47 -120 0 -339 -43 -430
-85 -36 -16 -109 -40 -162 -53 l-97 -24 -67 22 c-65 21 -68 24 -89 72 -12 28
-30 72 -40 98 -14 40 -25 52 -68 76 -98 54 -148 96 -227 188 -123 145 -140
222 -112 508 6 60 9 112 6 114 -11 12 -53 -22 -87 -72 -56 -82 -71 -147 -63
-292 8 -171 75 -451 121 -505 7 -8 25 -40 40 -70 15 -30 40 -66 56 -81 16 -14
56 -60 90 -100 72 -87 105 -112 219 -169 47 -23 107 -53 133 -67 66 -34 193
-50 407 -52 264 -2 327 -18 430 -109 36 -31 127 -104 203 -160 75 -57 137
-109 137 -116 0 -7 -17 -24 -37 -37 -57 -37 -95 -91 -100 -142 -7 -63 13 -139
53 -197 l34 -50 -20 -59 c-10 -32 -22 -78 -26 -102 -9 -64 -33 -132 -50 -146
-49 -37 -284 141 -334 254 -23 52 -37 55 -45 10 -10 -54 13 -149 60 -251 70
-150 117 -203 251 -282 17 -10 17 -14 -5 -95 -12 -46 -31 -97 -41 -114 -38
-63 -70 -159 -70 -210 0 -66 9 -94 76 -232 60 -124 89 -154 171 -179 90 -27
209 -42 268 -32 34 5 77 4 112 -2 228 -40 250 -42 314 -26 33 9 70 16 81 16
29 0 160 73 243 135 85 64 185 108 418 187 155 52 192 69 281 128 155 102 139
98 195 51 67 -56 98 -106 130 -205 15 -48 31 -89 34 -93 12 -12 37 19 48 61 6
22 14 70 18 106 8 81 28 96 112 80 63 -12 187 9 254 42 120 60 262 204 330
335 47 88 55 165 31 279 -21 95 -117 296 -176 368 -23 27 -57 77 -77 110 -19
33 -61 90 -92 126 -31 36 -90 107 -131 158 -41 50 -77 92 -80 92 -13 0 -113
133 -131 175 -11 24 -24 69 -30 101 -27 146 65 260 193 240 54 -9 170 11 234
41 143 65 314 390 314 598 0 86 -21 216 -49 313 -16 51 -42 102 -88 170 -97
142 -113 159 -281 303 -84 72 -174 156 -200 187 -93 109 -249 214 -425 287
-48 20 -111 51 -140 69 -29 18 -81 48 -117 66 -36 18 -76 40 -90 50 -28 19
-199 81 -221 79 -8 -1 -25 -4 -38 -8z"/>
</g>
</svg>
